<?xml version="1.0" standalone="no"?>
<!DOCTYPE svg PUBLIC "-//W3C//DTD SVG 20010904//EN"
 "http://www.w3.org/TR/2001/REC-SVG-20010904/DTD/svg10.dtd">
<svg version="1.0" xmlns="http://www.w3.org/2000/svg"
 width="1366.000000pt" height="768.000000pt" viewBox="0 0 1366.000000 768.000000"
 preserveAspectRatio="xMidYMid meet">

<g transform="translate(0.000000,768.000000) scale(0.100000,-0.100000)"
fill="#000000" stroke="none">
<path d="M0 7545 c0 -117 2 -135 16 -135 9 0 14 6 11 13 -3 8 -2 19 3 26 13
22 48 -6 60 -48 14 -53 112 -133 141 -115 5 3 31 -11 59 -31 37 -27 55 -34 74
-29 21 5 31 0 52 -25 14 -17 33 -31 42 -31 10 0 26 -13 37 -30 11 -16 32 -34
48 -39 15 -6 27 -14 27 -19 0 -27 37 -19 100 23 37 25 70 45 73 45 3 0 18 11
33 25 15 14 39 28 53 32 14 3 33 11 41 18 8 7 42 16 75 21 56 6 100 20 153 47
17 8 22 17 19 34 -2 13 -2 21 1 18 3 -2 11 0 19 7 10 8 32 7 87 -7 l74 -17 38
26 c33 22 50 26 112 26 80 0 95 11 72 55 -16 30 -8 41 36 48 26 4 46 1 65 -10
21 -13 31 -14 42 -5 11 9 18 7 36 -9 18 -17 36 -21 104 -22 l82 -2 3 28 c2 16
9 27 18 27 9 0 14 7 13 18 -2 9 2 27 9 40 7 12 10 22 7 22 -2 0 4 23 15 50 11
28 20 53 20 55 0 3 -443 5 -985 5 l-985 0 0 -135z m1873 -50 c4 -8 2 -17 -2
-20 -5 -2 -11 4 -14 15 -6 23 8 27 16 5z"/>
<path d="M11907 7660 c3 -11 9 -23 14 -25 4 -3 47 -1 96 5 75 8 95 7 133 -7
25 -9 48 -21 51 -26 4 -6 14 -7 22 -4 13 5 26 -5 77 -61 27 -29 50 -15 50 31
0 17 3 27 7 24 3 -4 11 -3 17 2 6 5 25 11 41 13 28 3 30 1 27 -25 -2 -15 4
-35 13 -43 8 -8 15 -24 15 -35 0 -11 6 -21 13 -23 6 -2 32 -9 57 -16 72 -20
124 -41 142 -57 22 -19 70 -5 109 33 28 27 89 39 101 21 8 -14 -1 -37 -16 -37
-6 0 -21 -16 -34 -36 -13 -20 -19 -33 -13 -30 14 9 31 -26 31 -64 0 -17 5 -40
10 -51 13 -23 58 -26 66 -4 5 11 22 15 65 15 37 0 61 5 66 13 4 7 34 32 66 54
47 34 55 43 42 50 -16 9 -44 74 -45 104 0 24 33 49 57 43 12 -3 54 0 95 6 78
13 92 14 151 8 29 -3 41 0 52 15 8 12 15 15 20 8 3 -6 10 -9 15 -6 5 3 39 6
75 6 l65 1 0 59 0 59 -879 0 c-876 0 -879 0 -874 -20z"/>
<path d="M945 6507 c-4 -14 -15 -82 -18 -117 -1 -17 2 -24 13 -22 8 2 42 -2
77 -9 54 -11 63 -16 63 -34 0 -12 11 -32 25 -45 14 -13 25 -29 25 -36 0 -6 8
-11 18 -10 13 1 16 -5 14 -26 -3 -31 7 -39 68 -55 40 -10 49 -9 77 8 31 19 32
23 30 75 -3 56 12 94 37 94 7 0 22 9 34 20 21 20 22 20 22 2 0 -26 20 -40 50
-35 14 2 42 4 63 6 20 1 36 7 36 12 -3 24 -13 36 -25 31 -8 -3 -11 0 -8 8 3 8
1 17 -5 21 -6 3 -11 2 -11 -3 0 -5 -9 -12 -20 -15 -15 -4 -24 2 -34 21 -18 34
-85 94 -97 86 -5 -3 -9 0 -9 5 0 17 -50 13 -56 -4 -8 -20 -20 -19 -44 5 -17
17 -35 20 -112 22 -51 0 -119 2 -151 4 -37 1 -60 -2 -62 -9z"/>
<path d="M1010 6300 c0 -5 5 -10 10 -10 6 0 10 5 10 10 0 6 -4 10 -10 10 -5 0
-10 -4 -10 -10z"/>
<path d="M0 4956 l0 -1256 26 -6 c30 -8 39 0 73 63 17 32 33 49 49 51 12 2 22
8 22 14 0 7 17 8 48 4 33 -4 63 -1 91 9 24 8 56 16 73 17 16 1 32 6 34 10 3 4
22 8 42 8 20 0 45 7 55 14 10 8 26 12 36 9 9 -2 23 3 30 11 29 34 71 12 71
-37 0 -34 33 -93 61 -108 11 -5 38 -10 62 -9 23 0 58 -3 78 -6 26 -4 62 3 129
26 l93 32 45 -23 c50 -25 113 -27 146 -5 12 7 35 16 51 19 17 3 42 9 57 12 21
6 27 3 33 -15 6 -18 9 -20 17 -9 7 10 8 7 5 -13 -4 -25 -2 -26 70 -37 134 -20
213 -11 213 23 0 14 41 24 72 18 18 -3 42 -56 39 -84 -1 -10 3 -18 8 -18 6 0
11 -9 11 -20 0 -26 40 -44 55 -26 6 7 20 16 33 20 12 4 20 12 17 17 -4 5 6 9
22 9 42 0 93 17 117 39 35 32 130 53 202 45 36 -3 67 -10 70 -15 8 -14 74 23
74 43 0 10 4 18 8 18 6 0 8 45 2 60 -1 3 -2 8 -1 13 0 4 -5 7 -13 7 -9 0 -12
8 -8 25 3 16 -1 27 -11 31 -9 3 -21 21 -27 40 -6 19 -16 34 -21 34 -5 0 -9 8
-9 17 0 9 -18 47 -40 84 -22 36 -42 75 -45 85 -2 10 -20 49 -39 87 -20 37 -36
73 -36 81 0 7 -7 19 -15 26 -8 7 -15 21 -15 31 0 11 -4 19 -9 19 -5 0 -11 18
-15 40 -3 22 -11 40 -18 40 -6 0 -9 3 -5 6 3 4 -3 24 -13 45 -11 21 -20 45
-20 54 0 9 -12 42 -26 73 -41 91 -42 95 -49 142 -3 25 -12 58 -20 73 -8 15
-10 25 -6 22 5 -3 1 18 -10 45 -10 28 -19 70 -19 94 0 25 -5 46 -10 48 -6 2
-12 23 -15 47 -10 103 -19 158 -30 191 -6 19 -13 57 -14 85 -1 27 -7 55 -13
62 -8 10 -7 13 3 13 12 0 12 2 1 9 -8 4 -13 12 -12 17 6 26 -24 114 -45 134
-22 21 -87 31 -102 16 -3 -3 -18 1 -33 9 -23 12 -30 12 -49 -1 -16 -12 -41
-14 -104 -11 -100 5 -128 11 -147 35 -9 11 -51 28 -102 41 -82 20 -88 21 -134
5 -27 -9 -56 -25 -65 -36 -14 -18 -20 -19 -50 -9 -19 6 -49 9 -67 7 -60 -8
-117 20 -162 80 -36 48 -45 54 -78 54 -51 0 -67 25 -51 83 20 70 27 156 14
177 -9 15 -111 10 -145 -7 -14 -7 -48 -18 -75 -25 -73 -20 -99 -36 -85 -53 6
-8 17 -12 23 -10 30 11 47 -34 32 -83 -7 -20 -13 -23 -54 -20 -36 2 -47 7 -49
22 -5 26 -24 44 -56 52 -18 4 -32 18 -41 42 -9 19 -13 37 -11 40 7 6 -42 44
-87 67 -31 16 -41 18 -57 7 -28 -17 -40 -15 -40 8 0 10 -9 24 -20 30 -20 11
-20 8 -20 -1244z"/>
<path d="M13108 5933 c0 -10 -1 -24 -1 -30 1 -7 -4 -10 -9 -7 -6 4 -8 -3 -4
-17 3 -13 3 -18 0 -11 -7 14 -40 16 -49 2 -3 -6 5 -14 19 -20 25 -9 36 -30 16
-30 -14 0 -61 -50 -56 -59 3 -4 -1 -8 -9 -9 -48 -5 -65 -3 -96 11 -51 22 -70
28 -109 33 -19 2 -42 13 -51 24 -16 19 -17 19 -34 -16 -22 -46 -50 -43 -50 6
0 32 -2 35 -35 37 -94 6 -142 11 -143 15 -26 49 -44 52 -101 17 -17 -10 -39
-19 -48 -19 -18 0 -88 -64 -88 -80 0 -6 -14 -10 -31 -10 -24 0 -41 -10 -67
-37 -31 -31 -36 -43 -38 -92 -1 -31 -8 -59 -16 -66 -15 -12 -23 -39 -8 -30 5
3 10 1 10 -4 0 -6 8 -11 18 -12 10 0 12 -3 5 -6 -16 -6 -17 -35 -1 -51 9 -9 9
-12 0 -12 -7 0 -12 -16 -12 -40 0 -27 4 -40 13 -40 8 0 20 -12 28 -27 20 -40
30 -49 66 -56 23 -5 35 -2 41 9 5 10 28 15 72 17 45 2 65 7 68 17 3 8 10 18
16 22 19 13 129 9 186 -7 97 -27 103 -27 118 -8 10 14 26 18 70 18 44 0 65 5
91 24 30 21 37 23 66 12 41 -14 65 -6 63 23 -3 30 22 86 37 86 8 0 21 3 31 7
12 4 15 3 10 -5 -5 -8 0 -12 14 -12 12 0 18 4 15 10 -3 6 1 7 9 4 9 -3 16 -10
16 -15 0 -5 10 -9 21 -9 18 0 68 -40 69 -55 0 -3 0 -13 0 -23 0 -10 13 -23 30
-31 17 -7 29 -18 27 -24 -6 -18 41 -37 88 -37 29 0 45 -5 49 -15 3 -8 12 -15
19 -15 8 0 25 -8 38 -18 30 -23 106 -28 141 -9 l27 14 0 271 0 271 -37 7 c-20
4 -46 11 -57 17 -11 6 -30 10 -41 8 -12 -1 -37 4 -57 12 -21 9 -40 11 -48 6
-22 -14 -50 -10 -68 9 -16 17 -42 23 -51 10 -14 -18 -90 -5 -90 17 0 38 -98
65 -102 28z"/>
<path d="M12520 5909 c7 -11 14 -19 16 -16 7 7 -7 37 -17 37 -6 0 -5 -9 1 -21z"/>
<path d="M13015 5840 c-4 -6 -11 -7 -17 -4 -7 4 -8 2 -4 -4 10 -17 36 -15 36
3 0 17 -6 19 -15 5z"/>
<path d="M5775 5201 c-55 -23 -73 -76 -42 -122 13 -19 87 -127 165 -241 78
-114 142 -211 142 -216 0 -16 -60 -24 -240 -31 -179 -7 -216 -15 -249 -55 -11
-13 -4 -12 31 4 24 10 64 22 88 25 39 5 35 3 -30 -20 -94 -33 -163 -72 -253
-145 -74 -58 -240 -221 -233 -228 3 -2 33 19 68 46 170 132 361 245 468 276
48 15 135 27 350 51 l55 6 38 -64 c20 -35 37 -68 37 -73 0 -5 -23 -27 -51 -49
-62 -47 -72 -62 -106 -156 -22 -62 -27 -98 -33 -224 -6 -143 -8 -156 -52 -285
-64 -191 -63 -181 -25 -229 41 -51 90 -85 147 -102 57 -16 97 -53 112 -103 11
-35 10 -41 -6 -50 -110 -66 -108 -65 -101 -103 6 -34 5 -35 -17 -29 -104 29
-145 38 -228 46 -52 5 -154 10 -226 10 -154 0 -165 -5 -209 -97 -70 -147 -87
-304 -51 -465 l17 -77 57 -35 c77 -46 128 -66 168 -66 32 0 36 -4 65 -66 36
-76 66 -98 151 -115 53 -11 60 -15 83 -55 23 -40 29 -44 65 -44 27 0 48 8 68
25 17 14 55 36 84 50 64 29 93 25 172 -29 28 -19 63 -38 77 -41 19 -5 33 -21
53 -63 l27 -57 -45 -68 c-51 -76 -52 -79 -31 -222 17 -120 19 -358 4 -421 -11
-41 -13 -43 -28 -30 -10 10 -22 12 -30 6 -8 -4 -24 -5 -36 0 -12 4 -48 11 -81
14 -32 4 -74 11 -92 17 -18 6 -39 8 -47 5 -8 -3 -15 -1 -15 4 0 6 -10 10 -23
10 -27 0 -152 26 -165 34 -6 3 -29 7 -52 8 -22 1 -43 5 -45 9 -3 4 -37 13 -75
20 -39 7 -70 16 -70 21 0 4 -15 8 -32 8 -18 0 -41 7 -51 15 -11 7 -48 17 -83
20 -35 4 -64 11 -64 15 0 5 -39 20 -87 35 -49 14 -95 31 -103 36 -8 5 -22 12
-30 15 -8 3 -28 11 -43 19 -15 8 -25 10 -22 5 3 -6 2 -10 -3 -10 -6 0 -12 6
-15 13 -3 7 -24 19 -48 27 -24 8 -70 29 -101 47 -32 17 -58 30 -58 28 0 -2
-24 8 -52 24 -29 16 -70 34 -90 41 -21 6 -38 15 -38 20 0 5 -21 20 -47 33 -49
24 -56 27 -85 35 -10 2 -18 8 -18 13 0 5 -12 14 -27 20 -54 20 -98 44 -118 62
-11 10 -33 25 -50 33 -49 23 -121 68 -140 87 -9 9 -30 24 -46 32 -16 9 -29 19
-29 24 0 5 -12 14 -27 20 -32 12 -54 25 -103 62 -19 14 -66 38 -105 53 -38 15
-75 35 -82 43 -7 9 -29 17 -50 19 -21 2 -39 8 -41 14 -2 5 -10 10 -18 10 -8 0
-24 11 -36 25 -12 14 -27 25 -34 25 -7 0 -17 7 -22 17 -8 14 -18 15 -63 8 -77
-13 -194 -7 -236 10 -47 20 -97 11 -118 -21 -8 -13 -21 -24 -28 -24 -15 0 -87
65 -87 79 0 5 -28 24 -62 41 -35 17 -74 38 -88 46 -30 17 -57 18 -99 3 -27 -9
-35 -8 -51 6 -11 10 -20 28 -20 40 0 12 -8 29 -18 38 -16 14 -26 15 -92 3 -41
-7 -113 -25 -159 -40 -46 -15 -91 -24 -100 -21 -9 2 -29 -2 -45 -10 -38 -20
-52 -19 -93 6 -44 27 -107 35 -140 18 -19 -10 -26 -11 -32 0 -5 8 -43 13 -116
15 -77 3 -112 8 -119 17 -14 18 -56 24 -56 9 0 -6 -5 -8 -10 -5 -6 3 -10 17
-10 31 0 15 -6 24 -15 24 -17 0 -21 -45 -5 -55 5 -3 10 -21 10 -40 0 -31 -2
-33 -35 -32 -34 1 -41 -4 -103 -77 -22 -27 -24 -27 -37 -9 -8 10 -15 24 -15
31 0 6 -4 12 -8 12 -5 0 -17 18 -28 39 -10 22 -29 45 -42 51 -13 5 -20 15 -17
20 11 17 -48 32 -104 27 -45 -5 -56 -3 -70 14 -9 11 -27 21 -40 22 -13 1 -37
14 -53 29 -37 34 -95 38 -142 9 -17 -11 -48 -22 -68 -26 -32 -6 -53 -3 -127
21 -10 3 -10 8 -2 18 15 18 -11 40 -38 31 -12 -4 -24 0 -33 12 -7 10 -26 27
-41 36 -16 10 -26 21 -23 24 3 3 -2 12 -12 20 -11 8 -12 12 -3 11 24 -5 23 20
-1 33 -13 7 -26 16 -29 21 -10 16 -74 26 -115 19 -52 -9 -113 18 -72 31 8 3 7
11 -5 28 -9 14 -17 21 -17 17 0 -4 -9 -3 -20 3 -14 7 -30 6 -62 -6 -76 -28
-179 -41 -208 -27 -14 7 -42 13 -62 13 -25 0 -46 8 -67 26 l-31 26 0 -374 0
-373 110 9 c97 8 112 7 128 -7 10 -9 24 -17 30 -17 7 0 20 -4 30 -9 9 -5 29
-14 44 -21 15 -7 33 -26 40 -42 7 -15 16 -28 20 -28 5 0 8 -6 8 -12 0 -7 18
-26 40 -41 22 -16 40 -35 40 -43 0 -8 5 -14 10 -14 6 0 10 -19 10 -43 0 -41 2
-44 46 -65 25 -12 49 -20 54 -17 4 3 15 -6 23 -19 16 -23 15 -24 -23 -30 -21
-3 -45 -12 -52 -19 -7 -8 -19 -12 -26 -9 -6 2 -12 0 -12 -5 0 -9 -22 -13 -71
-16 -17 0 -25 -5 -22 -13 2 -6 -3 -14 -11 -17 -9 -4 -13 -13 -10 -22 5 -13 2
-14 -21 -5 -22 8 -31 7 -45 -5 -9 -8 -20 -12 -24 -8 -4 4 -4 0 -1 -8 3 -9 -1
-21 -9 -28 -11 -9 -13 -19 -6 -37 9 -22 7 -24 -30 -30 -22 -4 -40 -10 -40 -15
0 -5 -9 -9 -20 -9 -11 0 -20 -4 -20 -9 0 -8 -41 -24 -65 -25 -5 -1 -18 -8 -28
-16 -19 -16 -22 -17 -67 -19 l-30 -1 0 -790 0 -790 6830 0 6830 0 0 2330 c0
2323 0 2330 -20 2330 -15 0 -20 7 -20 29 0 29 21 57 33 44 4 -3 7 44 7 105 0
89 -3 112 -14 112 -17 0 -28 24 -20 45 11 28 -18 40 -101 39 -44 0 -84 3 -90
7 -21 14 -122 20 -148 8 -15 -7 -27 -15 -27 -18 0 -4 -12 -22 -28 -40 -26 -31
-29 -32 -56 -20 -25 12 -30 11 -42 -5 -11 -16 -29 -19 -144 -20 -108 -1 -134
-4 -143 -17 -22 -29 -165 -49 -204 -28 -22 12 -40 44 -34 63 4 16 -19 63 -32
64 -7 0 -46 4 -87 7 -41 4 -76 11 -78 16 -2 5 -10 9 -18 9 -9 0 -12 5 -8 12 5
7 3 8 -5 4 -23 -15 -51 24 -51 71 0 23 -5 43 -11 43 -5 0 -7 5 -4 10 3 6 1 10
-4 10 -6 0 -11 -7 -11 -15 0 -9 -10 -16 -27 -16 -24 -2 -25 -2 -5 -6 12 -2 22
-11 22 -20 0 -12 -7 -14 -32 -9 -18 3 -38 7 -45 8 -7 1 -11 6 -10 11 1 5 -4
12 -10 14 -7 3 -13 -3 -13 -11 0 -13 -8 -16 -35 -13 -23 3 -35 0 -35 -8 0 -27
-28 -37 -165 -61 -47 -8 -65 -15 -65 -25 0 -5 -7 -9 -15 -9 -8 0 -15 -9 -15
-19 0 -11 -4 -23 -10 -26 -5 -3 -10 -16 -10 -28 0 -12 -7 -35 -15 -51 -8 -15
-15 -32 -15 -38 0 -5 -9 -28 -20 -50 -11 -23 -20 -49 -20 -58 0 -9 -4 -20 -8
-26 -13 -15 -34 -83 -28 -92 3 -5 -4 -21 -15 -38 -10 -16 -19 -38 -19 -50 0
-11 -4 -24 -9 -30 -5 -5 -14 -27 -21 -49 -7 -22 -28 -72 -46 -112 -19 -39 -34
-78 -34 -86 0 -9 -6 -22 -14 -30 -8 -8 -22 -32 -31 -53 -9 -21 -28 -59 -43
-84 -14 -25 -25 -48 -24 -52 1 -5 -2 -8 -7 -8 -4 0 -16 -20 -25 -44 -10 -25
-27 -57 -38 -72 -12 -14 -31 -44 -42 -65 -61 -113 -91 -160 -132 -209 -24 -30
-47 -65 -50 -77 -4 -13 -10 -23 -14 -23 -5 0 -34 -40 -65 -90 -31 -49 -76
-112 -101 -139 -24 -27 -44 -51 -44 -55 0 -3 -11 -16 -25 -30 -14 -14 -25 -32
-25 -40 0 -8 -9 -18 -20 -21 -11 -3 -20 -10 -20 -15 0 -5 -17 -27 -37 -49 -21
-23 -53 -61 -72 -86 -18 -25 -37 -45 -42 -45 -5 0 -9 -4 -9 -9 0 -6 -30 -41
-67 -79 -38 -38 -88 -93 -113 -121 -25 -29 -62 -70 -82 -93 -21 -22 -38 -44
-38 -49 0 -5 -5 -9 -12 -9 -6 0 -28 -17 -48 -37 -21 -21 -66 -63 -100 -93 -35
-30 -70 -63 -78 -72 -9 -9 -19 -15 -24 -12 -4 3 -8 -2 -8 -10 0 -8 -10 -20
-21 -27 -12 -6 -35 -24 -50 -40 -16 -17 -29 -27 -29 -25 0 3 -12 -6 -26 -19
-15 -14 -30 -25 -35 -25 -4 0 -10 -8 -13 -18 -3 -9 -21 -26 -40 -36 -18 -10
-47 -30 -63 -44 -33 -29 -46 -39 -112 -80 -24 -15 -62 -40 -85 -57 -22 -16
-57 -38 -76 -47 -19 -10 -55 -31 -80 -47 -41 -27 -239 -138 -300 -168 -14 -7
-32 -17 -40 -22 -37 -22 -100 -52 -100 -47 0 2 -21 -7 -46 -20 -25 -13 -50
-22 -55 -19 -5 4 -9 1 -9 -4 0 -6 -8 -11 -18 -11 -10 0 -28 -9 -39 -19 -11
-11 -40 -25 -63 -31 -24 -6 -50 -15 -59 -20 -9 -5 -43 -18 -76 -31 -33 -12
-80 -29 -105 -39 -25 -10 -65 -24 -90 -31 -25 -7 -49 -16 -55 -20 -5 -4 -41
-14 -80 -24 -38 -9 -81 -22 -95 -30 -14 -7 -38 -15 -55 -18 -16 -3 -50 -10
-75 -17 -25 -7 -58 -14 -75 -16 -16 -1 -55 -9 -85 -17 -68 -18 -182 -43 -235
-52 -22 -4 -43 -9 -47 -12 -5 -2 -42 -6 -84 -9 -42 -2 -81 -7 -88 -11 -20 -13
-175 -13 -182 -1 -14 22 -23 409 -12 479 10 64 9 69 -31 183 -23 65 -39 122
-36 126 5 8 300 224 332 244 7 4 46 0 87 -9 41 -8 104 -15 139 -15 60 0 65 2
99 38 19 20 49 57 65 82 25 37 40 48 79 59 62 17 185 73 224 101 19 13 45 53
70 104 22 45 51 92 64 103 13 12 29 38 36 58 12 36 9 44 -61 207 -66 153 -78
174 -124 217 -79 71 -173 114 -265 119 -122 6 -204 -16 -373 -102 l-148 -76
-52 18 c-46 15 -52 20 -49 42 10 68 27 86 131 142 109 57 116 68 82 117 -32
45 -34 70 -16 288 22 266 17 399 -20 507 -32 96 -53 126 -124 174 -30 20 -67
57 -82 81 -16 25 -54 60 -90 85 -67 43 -68 46 -88 156 -21 113 -97 245 -174
304 -40 31 -169 66 -240 66 -88 0 -226 -46 -345 -116 -56 -33 -49 -40 12 -14
55 23 56 23 56 10 0 -18 -131 -118 -204 -156 -39 -21 -73 -41 -74 -46 -5 -12
-103 -61 -109 -54 -3 3 -54 80 -113 173 -171 264 -162 255 -215 234z m525
-555 c0 -1 -5 -17 -11 -35 -9 -26 -8 -37 10 -67 12 -19 19 -40 16 -45 -14 -21
-34 -6 -61 47 l-29 55 30 25 c27 22 45 30 45 20z m310 -287 c0 -18 -2 -19 -15
-9 -8 7 -15 16 -15 21 0 5 7 9 15 9 9 0 15 -9 15 -21z m348 9 c-6 -18 -28 -21
-28 -4 0 9 7 16 16 16 9 0 14 -5 12 -12z m-297 -21 c-13 -13 -26 -3 -16 12 3
6 11 8 17 5 6 -4 6 -10 -1 -17z m233 8 c3 -9 0 -15 -9 -15 -8 0 -15 7 -15 15
0 8 4 15 9 15 5 0 11 -7 15 -15z m22 -2247 c-6 -55 -15 -96 -22 -101 -7 -4
-18 -23 -24 -42 -10 -29 -16 -35 -39 -35 -26 0 -29 4 -34 42 -4 31 -14 49 -36
68 -20 16 -36 43 -46 75 -26 88 -30 85 98 85 l112 0 -9 -92z"/>
</g>
</svg>
